PathFileType	4	(x/y/z)	S04_PSF_T02.trc
DataRate	CameraRate	NumFrames	NumMarkers	Units	OrigDataRate	OrigDataStartFrame	OrigNumFrames
240	240	8	51	mm	240	216	430
Frame#	Time	Sternum			R.Acromium			L.Acromium			Top.Head			R.ASIS			L.ASIS			R.PSIS			L.PSIS			R.Great.Tro			L.Great.Tro			R.Iliac.Crest			L.Iliac.Crest			V.Sacral			R.Thigh.Upper.Post			R.Thigh.Lower.Ant			R.Thigh.Lower.Post			R.Thigh.Upper.Ant			R.Knee.Lat			R.Knee.Med			R.Shank.Upper.Post			R.Shank.Lower.Ant			R.Shank.Lower.Post			R.Shank.Upper.Ant			R.Ankle.Lat			R.Ankle.Med			R.Heel.Upper			R.Heel.Med			R.Heel.Lat			R.Toe.Lat			R.Toe.Med			R.Toe.Tip			L.Thigh.Upper.Post			L.Thigh.Lower.Ant			L.Thigh.Lower.Post			L.Thigh.Upper.Ant			L.Knee.Lat			L.Knee.Med			L.Shank.Upper.Post			L.Shank.Lower.Ant			L.Shank.Lower.Post			L.Shank.Upper.Ant			L.Ankle.Lat			L.Ankle.Med			L.Heel.Upper			L.Heel.Med			L.Heel.Lat			L.Toe.Lat			L.Toe.Med			L.Toe.Tip			Cervical.Spine			Back			
		X1	Y1	Z1	X2	Y2	Z2	X3	Y3	Z3	X4	Y4	Z4	X5	Y5	Z5	X6	Y6	Z6	X7	Y7	Z7	X8	Y8	Z8	X9	Y9	Z9	X10	Y10	Z10	X11	Y11	Z11	X12	Y12	Z12	X13	Y13	Z13	X14	Y14	Z14	X15	Y15	Z15	X16	Y16	Z16	X17	Y17	Z17	X18	Y18	Z18	X19	Y19	Z19	X20	Y20	Z20	X21	Y21	Z21	X22	Y22	Z22	X23	Y23	Z23	X24	Y24	Z24	X25	Y25	Z25	X26	Y26	Z26	X27	Y27	Z27	X28	Y28	Z28	X29	Y29	Z29	X30	Y30	Z30	X31	Y31	Z31	X32	Y32	Z32	X33	Y33	Z33	X34	Y34	Z34	X35	Y35	Z35	X36	Y36	Z36	X37	Y37	Z37	X38	Y38	Z38	X39	Y39	Z39	X40	Y40	Z40	X41	Y41	Z41	X42	Y42	Z42	X43	Y43	Z43	X44	Y44	Z44	X45	Y45	Z45	X46	Y46	Z46	X47	Y47	Z47	X48	Y48	Z48	X49	Y49	Z49	X50	Y50	Z50	X51	Y51	Z51	

216	0.89583	-369.08	1287.2	317.34	-485.2	1514.2	499.57	-508.48	1505.1	151.5	-448.66	1841.2	312.4	-399.79	1002.8	458.37	-399.34	1021.3	208.72	-611.38	1041.5	354.64	-602.22	1044.6	274.57	-492.03	923.35	515.82	-505.89	936.3	138.2	-482.05	1096.7	497.59	-501.1	1102.9	164.54	-628.79	1001.8	314.23	-489.68	663.93	493.89	-413.31	582.85	460.07	-488.65	574.05	477.57	-404.92	690.7	486.35	-463.88	505.65	463.3	-483.38	505.01	337.73	-549.52	283.86	450.21	-485.86	204.91	405.21	-552.88	214.81	430.84	-485.08	273.18	432.69	-545.03	102.44	404.89	-525.77	119.27	317.92	-612.51	75.742	347.48	-602.74	45.481	316.83	-607.31	42.845	381.73	-439.13	37.935	434.29	-399.12	41.176	315.36	-337.75	57.907	365.3	-434.93	701.14	134.46	-323.66	641.12	133.44	-393.73	621.57	143.61	-369.49	718.81	122.41	-336.41	546.53	146.69	-320.1	530.01	272.82	-491.76	434.52	160.14	-475.52	325.28	149.46	-524.91	364.12	164.42	-442.67	394.88	144.44	-575.59	205.96	169.65	-555.77	207.29	259.61	-650.06	214.11	221.74	-655.37	188.89	255.29	-663.13	189.91	193.73	-515.53	91.229	140.81	-474.18	79.421	251.04	-424.38	63.574	198.37	-543.51	1563.6	333.15	-628.07	1306.4	315.26
217	0.9	-363.97	1287.2	317.5	-479.51	1514.3	499.89	-503.56	1505.1	151.87	-443.44	1841.2	312.43	-395.18	1002.6	458.94	-394.15	1021.4	209.27	-606.44	1041.6	354.63	-597.15	1044.7	274.59	-487.73	923.27	516.02	-500.35	936.55	138.35	-477.32	1096.7	497.9	-495.92	1103	164.81	-623.76	1001.9	314.17	-487.35	664.04	493.94	-411.54	582.37	460.28	-486.98	574.15	477.7	-402.36	690.15	486.53	-462.78	505.51	463.46	-482	505.02	337.84	-549.12	284.04	450.11	-485.53	204.91	405.27	-552.6	214.99	430.68	-484.62	273.16	432.78	-544.88	102.57	404.71	-525.63	119.34	317.76	-612.48	75.904	347.33	-602.75	45.547	316.7	-607.24	43.027	381.65	-439.1	37.922	434.26	-399.07	41.023	315.32	-337.67	57.658	365.31	-428.08	701.72	134.56	-316.44	642.33	134.21	-386.47	622.36	143.87	-362.68	719.73	122.94	-328.68	547.39	147.42	-312.72	531.29	273.52	-482.02	432.08	160.06	-463.44	323.14	150.23	-513.74	361.05	164.59	-432.03	393.34	144.99	-561.1	201.68	170.31	-541.8	203.88	260.37	-636.08	208.33	221.97	-640.93	183.15	255.65	-648.41	183.7	194.04	-498.19	88.261	142.27	-457.12	77.948	252.81	-406.74	62.986	200.45	-538.16	1563.7	333.58	-622.86	1306.5	315.88
218	0.90417	-358.86	1287.2	317.65	-473.83	1514.4	500.19	-498.63	1505.1	152.22	-438.23	1841.2	312.46	-390.55	1002.4	459.48	-388.98	1021.5	209.79	-601.5	1041.6	354.62	-592.08	1044.8	274.61	-483.41	923.15	516.21	-494.84	936.73	138.51	-472.6	1096.6	498.2	-490.75	1103.1	165.08	-618.74	1002	314.11	-485	664.15	493.98	-409.75	581.88	460.48	-485.27	574.24	477.83	-399.78	689.61	486.69	-461.66	505.37	463.62	-480.62	505.02	337.93	-548.7	284.23	450	-485.19	204.92	405.32	-552.3	215.19	430.52	-484.15	273.16	432.87	-544.72	102.71	404.53	-525.49	119.42	317.6	-612.44	76.065	347.18	-602.74	45.618	316.59	-607.17	43.212	381.57	-439.07	37.908	434.23	-399.03	40.873	315.28	-337.59	57.407	365.31	-421.32	702.23	134.68	-309.35	643.45	134.98	-379.34	623.08	144.16	-355.98	720.56	123.49	-321.08	548.18	148.15	-305.44	532.48	274.21	-472.3	429.55	160	-451.35	320.97	151	-502.54	357.91	164.78	-421.42	391.76	145.55	-546.5	197.4	170.96	-527.72	200.44	261.12	-621.96	202.51	222.23	-626.33	177.36	256.02	-633.53	177.46	194.38	-480.76	85.37	143.7	-439.98	76.53	254.53	-389.07	62.491	202.47	-532.81	1563.8	334.01	-617.65	1306.6	316.49
219	0.90833	-353.76	1287.1	317.8	-468.15	1514.4	500.48	-493.68	1505.1	152.57	-433.01	1841.1	312.48	-385.91	1002.2	459.99	-383.82	1021.5	210.29	-596.55	1041.6	354.61	-587.02	1044.8	274.63	-479.08	923.01	516.4	-489.37	936.85	138.67	-467.88	1096.6	498.5	-485.6	1103.1	165.33	-613.71	1002	314.06	-482.62	664.24	494.01	-407.93	581.4	460.67	-483.53	574.33	477.95	-397.19	689.06	486.81	-460.51	505.23	463.78	-479.22	505.03	338.03	-548.26	284.41	449.9	-484.84	204.93	405.37	-552	215.39	430.36	-483.67	273.15	432.95	-544.56	102.85	404.34	-525.36	119.51	317.44	-612.39	76.221	347.03	-602.71	45.693	316.48	-607.1	43.398	381.48	-439.04	37.893	434.2	-398.99	40.727	315.24	-337.5	57.155	365.32	-414.67	702.67	134.84	-302.39	644.47	135.74	-372.33	623.71	144.47	-349.39	721.3	124.04	-313.59	548.88	148.88	-298.26	533.58	274.89	-462.59	426.95	159.99	-439.26	318.78	151.76	-491.32	354.71	165	-410.83	390.13	146.11	-531.8	193.13	171.62	-513.53	196.96	261.86	-607.7	196.66	222.51	-611.57	171.55	256.41	-618.5	171.21	194.74	-463.26	82.566	145.11	-422.77	75.175	256.2	-371.36	62.097	204.41	-527.45	1563.8	334.41	-612.43	1306.6	317.08
220	0.9125	-348.66	1286.9	317.94	-462.48	1514.4	500.77	-488.72	1505	152.9	-427.79	1841	312.5	-381.25	1001.9	460.47	-378.67	1021.5	210.76	-591.6	1041.6	354.6	-581.97	1044.7	274.65	-474.74	922.85	516.58	-483.93	936.91	138.83	-463.16	1096.4	498.79	-480.46	1103.1	165.57	-608.69	1001.9	314.02	-480.21	664.32	494.04	-406.09	580.91	460.84	-481.76	574.41	478.07	-394.58	688.51	486.92	-459.34	505.09	463.92	-477.82	505.03	338.12	-547.79	284.6	449.8	-484.49	204.94	405.43	-551.68	215.59	430.21	-483.18	273.16	433.03	-544.4	102.99	404.16	-525.22	119.6	317.29	-612.32	76.371	346.88	-602.65	45.774	316.37	-607.03	43.586	381.39	-439.01	37.876	434.16	-398.95	40.588	315.19	-337.42	56.903	365.32	-408.14	703.03	135.03	-295.57	645.38	136.5	-365.46	624.26	144.8	-342.92	721.94	124.59	-306.23	549.49	149.6	-291.19	534.6	275.57	-452.9	424.27	160.01	-427.19	316.59	152.52	-480.09	351.46	165.26	-400.28	388.48	146.67	-516.99	188.88	172.27	-499.23	193.47	262.6	-593.3	190.79	222.82	-596.67	165.72	256.8	-603.31	164.96	195.13	-445.68	79.86	146.48	-405.51	73.89	257.82	-353.62	61.81	206.3	-522.09	1563.7	334.81	-607.21	1306.6	317.64
221	0.91667	-343.56	1286.7	318.08	-456.81	1514.4	501.04	-483.75	1504.9	153.23	-422.56	1840.9	312.51	-376.57	1001.6	460.93	-373.53	1021.4	211.2	-586.64	1041.5	354.59	-576.92	1044.7	274.68	-470.37	922.66	516.76	-478.52	936.91	138.99	-458.44	1096.3	499.07	-475.33	1103	165.8	-603.66	1001.8	313.98	-477.77	664.4	494.07	-404.22	580.43	461	-479.95	574.48	478.19	-391.95	687.95	487	-458.14	504.95	464.06	-476.4	505.03	338.2	-547.3	284.79	449.71	-484.13	204.96	405.48	-551.35	215.81	430.06	-482.68	273.16	433.11	-544.24	103.13	403.98	-525.07	119.69	317.13	-612.23	76.514	346.73	-602.56	45.859	316.28	-606.96	43.775	381.3	-438.98	37.856	434.12	-398.91	40.456	315.14	-337.33	56.652	365.33	-401.71	703.32	135.25	-288.89	646.18	137.25	-358.72	624.71	145.15	-336.57	722.5	125.15	-299	550.02	150.32	-284.21	535.52	276.24	-443.22	421.53	160.08	-415.12	314.38	153.27	-468.84	348.17	165.54	-389.77	386.79	147.23	-502.07	184.66	172.91	-484.82	189.97	263.33	-578.77	184.93	223.14	-581.6	159.89	257.2	-587.96	158.73	195.54	-428.04	77.261	147.82	-388.2	72.684	259.4	-335.86	61.639	208.11	-516.73	1563.7	335.19	-601.99	1306.5	318.19
222	0.92083	-338.46	1286.5	318.2	-451.15	1514.3	501.3	-478.76	1504.7	153.55	-417.33	1840.8	312.53	-371.88	1001.3	461.36	-368.39	1021.2	211.62	-581.68	1041.4	354.58	-571.87	1044.5	274.71	-465.98	922.45	516.94	-473.15	936.85	139.15	-453.73	1096.1	499.35	-470.22	1102.8	166.02	-598.63	1001.7	313.94	-475.3	664.46	494.1	-402.31	579.94	461.15	-478.1	574.55	478.3	-389.3	687.4	487.06	-456.9	504.81	464.2	-474.97	505.02	338.29	-546.78	284.99	449.63	-483.75	204.98	405.53	-551	216.03	429.92	-482.17	273.17	433.18	-544.07	103.27	403.8	-524.91	119.78	316.99	-612.12	76.649	346.59	-602.45	45.948	316.2	-606.89	43.964	381.21	-438.94	37.835	434.08	-398.87	40.332	315.09	-337.24	56.403	365.34	-395.4	703.54	135.51	-282.35	646.88	137.99	-352.12	625.08	145.53	-330.34	722.95	125.71	-291.9	550.46	151.03	-277.34	536.36	276.91	-433.55	418.72	160.2	-403.06	312.19	154.02	-457.57	344.85	165.87	-379.3	385.09	147.8	-487.07	180.48	173.55	-470.32	186.47	264.05	-564.09	179.07	223.47	-566.39	154.07	257.6	-572.45	152.54	195.95	-410.34	74.778	149.12	-370.85	71.564	260.93	-318.09	61.591	209.87	-511.37	1563.5	335.56	-596.77	1306.4	318.72
223	0.925	-333.35	1286.2	318.32	-445.49	1514.1	501.55	-473.76	1504.5	153.86	-412.09	1840.6	312.54	-367.16	1000.9	461.77	-363.26	1021	212.02	-576.71	1041.3	354.57	-566.83	1044.3	274.75	-461.58	922.22	517.12	-467.81	936.73	139.31	-449.03	1095.8	499.62	-465.12	1102.6	166.23	-593.6	1001.5	313.92	-472.79	664.52	494.13	-400.37	579.46	461.29	-476.21	574.6	478.42	-386.62	686.84	487.1	-455.63	504.67	464.33	-473.53	505.02	338.37	-546.23	285.18	449.56	-483.37	205	405.58	-550.63	216.26	429.79	-481.64	273.19	433.26	-543.9	103.42	403.62	-524.73	119.87	316.84	-611.99	76.777	346.45	-602.31	46.041	316.13	-606.81	44.151	381.11	-438.91	37.81	434.03	-398.84	40.217	315.05	-337.14	56.156	365.36	-389.21	703.67	135.8	-275.94	647.46	138.72	-345.65	625.36	145.94	-324.22	723.31	126.27	-284.92	550.81	151.75	-270.57	537.1	277.58	-423.91	415.86	160.37	-391.03	310	154.74	-446.3	341.5	166.22	-368.87	383.37	148.37	-471.96	176.35	174.18	-455.71	182.98	264.75	-549.28	173.24	223.82	-551.01	148.27	258	-556.8	146.39	196.38	-392.58	72.423	150.4	-353.47	70.539	262.41	-300.3	61.674	211.56	-506	1563.4	335.91	-591.54	1306.3	319.23
